<mxfile host="app.diagrams.net" modified="2024-05-18T10:52:26.469Z" agent="Mozilla/5.0 (Windows NT 10.0; Win64; x64) AppleWebKit/537.36 (KHTML, like Gecko) Chrome/123.0.0.0 Safari/537.36" etag="q1Wla1j72bVBkYwl83m-" version="24.4.4" type="github">
  <diagram name="第 1 页" id="DzlrupRtImGkVrxjG9Ys">
    <mxGraphModel dx="1737" dy="466" grid="1" gridSize="10" guides="1" tooltips="1" connect="1" arrows="1" fold="1" page="1" pageScale="1" pageWidth="827" pageHeight="1169" math="0" shadow="0">
      <root>
        <mxCell id="0" />
        <mxCell id="1" parent="0" />
        <mxCell id="laW0JjJNz50W9D5S5Sig-1" value="" style="shape=dataStorage;whiteSpace=wrap;html=1;fixedSize=1;rotation=-180;" vertex="1" parent="1">
          <mxGeometry x="90" y="520" width="140" height="50" as="geometry" />
        </mxCell>
        <mxCell id="laW0JjJNz50W9D5S5Sig-2" value="&lt;span style=&quot;color: rgb(51, 51, 51); font-family: &amp;quot;Noto Sans SC&amp;quot;; font-size: 16px; font-style: normal; font-variant-ligatures: normal; font-variant-caps: normal; font-weight: 400; letter-spacing: normal; orphans: 2; text-align: left; text-indent: 0px; text-transform: none; widows: 2; word-spacing: 0px; -webkit-text-stroke-width: 0px; background-color: rgb(255, 255, 255); text-decoration-thickness: initial; text-decoration-style: initial; text-decoration-color: initial; float: none; display: inline !important;&quot;&gt;1847 年 7 月&lt;/span&gt;" style="text;whiteSpace=wrap;html=1;" vertex="1" parent="1">
          <mxGeometry x="120" y="530" width="130" height="40" as="geometry" />
        </mxCell>
        <mxCell id="laW0JjJNz50W9D5S5Sig-3" value="" style="shape=dataStorage;whiteSpace=wrap;html=1;fixedSize=1;rotation=-180;" vertex="1" parent="1">
          <mxGeometry x="220" y="520" width="140" height="50" as="geometry" />
        </mxCell>
        <mxCell id="laW0JjJNz50W9D5S5Sig-4" value="&lt;span style=&quot;color: rgb(51, 51, 51); font-family: &amp;quot;Noto Sans SC&amp;quot;; font-size: 16px; font-style: normal; font-variant-ligatures: normal; font-variant-caps: normal; font-weight: 400; letter-spacing: normal; orphans: 2; text-align: left; text-indent: 0px; text-transform: none; widows: 2; word-spacing: 0px; -webkit-text-stroke-width: 0px; background-color: rgb(255, 255, 255); text-decoration-thickness: initial; text-decoration-style: initial; text-decoration-color: initial; float: none; display: inline !important;&quot;&gt;1848 年 2 月&lt;/span&gt;" style="text;whiteSpace=wrap;html=1;" vertex="1" parent="1">
          <mxGeometry x="250" y="530" width="130" height="40" as="geometry" />
        </mxCell>
        <mxCell id="laW0JjJNz50W9D5S5Sig-5" value="马克思的《哲学的贫困》" style="rounded=0;whiteSpace=wrap;html=1;" vertex="1" parent="1">
          <mxGeometry x="100" y="590" width="120" height="60" as="geometry" />
        </mxCell>
        <mxCell id="laW0JjJNz50W9D5S5Sig-6" value="马、恩格斯合写的《共产党宣言》" style="rounded=0;whiteSpace=wrap;html=1;" vertex="1" parent="1">
          <mxGeometry x="230" y="590" width="120" height="60" as="geometry" />
        </mxCell>
        <mxCell id="laW0JjJNz50W9D5S5Sig-7" value="" style="shape=dataStorage;whiteSpace=wrap;html=1;fixedSize=1;rotation=-180;" vertex="1" parent="1">
          <mxGeometry x="-40" y="520" width="140" height="50" as="geometry" />
        </mxCell>
        <mxCell id="laW0JjJNz50W9D5S5Sig-8" value="&lt;span style=&quot;color: rgb(51, 51, 51); font-family: &amp;quot;Noto Sans SC&amp;quot;; font-size: 16px; font-style: normal; font-variant-ligatures: normal; font-variant-caps: normal; font-weight: 400; letter-spacing: normal; orphans: 2; text-align: left; text-indent: 0px; text-transform: none; widows: 2; word-spacing: 0px; -webkit-text-stroke-width: 0px; background-color: rgb(255, 255, 255); text-decoration-thickness: initial; text-decoration-style: initial; text-decoration-color: initial; float: none; display: inline !important;&quot;&gt;十九世纪初期&lt;/span&gt;" style="text;whiteSpace=wrap;html=1;" vertex="1" parent="1">
          <mxGeometry x="-10" y="530" width="130" height="40" as="geometry" />
        </mxCell>
        <mxCell id="laW0JjJNz50W9D5S5Sig-9" value="&lt;font color=&quot;#ff0000&quot;&gt;&lt;b&gt;欧洲的空想社会&lt;/b&gt;&lt;/font&gt;主义思想是&lt;br&gt;科学社会主义得&lt;br&gt;&lt;b&gt;&lt;font color=&quot;#ff0000&quot;&gt;直接理论来源&lt;/font&gt;&lt;/b&gt;" style="rounded=0;whiteSpace=wrap;html=1;fillColor=#fff2cc;strokeColor=#d6b656;" vertex="1" parent="1">
          <mxGeometry x="-30" y="590" width="120" height="60" as="geometry" />
        </mxCell>
      </root>
    </mxGraphModel>
  </diagram>
</mxfile>
